<?xml version="1.0" encoding="utf-8"?>
<!-- Generator: Adobe Illustrator 24.1.0, SVG Export Plug-In . SVG Version: 6.00 Build 0)  -->
<svg version="1.1" id="Layer_1" xmlns="http://www.w3.org/2000/svg" xmlns:xlink="http://www.w3.org/1999/xlink" x="0px" y="0px"
	 viewBox="0 0 114 25" style="enable-background:new 0 0 114 25;" xml:space="preserve">
<path d="M13.9,10.9h13.5V24h-5.6l-0.7-5.6c-0.6,2-1.8,3.5-3.4,4.5c-1.6,1-3.6,1.5-6,1.5c-2.1,0-4-0.5-5.7-1.4
	c-1.6-1-2.9-2.3-3.9-4.1c-0.9-1.8-1.4-3.8-1.4-6.2c0-3.8,1.1-6.8,3.4-9S10,0.4,14.7,0.4c2.7,0,5.1,0.4,7.2,1.3
	C24,2.6,25.8,4,27.3,5.8c-1,0.5-2.8,1.5-5.6,2.9l-0.8,0.4c-0.8-0.8-1.8-1.4-2.9-1.8c-1.1-0.4-2.3-0.6-3.5-0.6c-2,0-3.5,0.5-4.5,1.6
	c-1,1.1-1.5,2.4-1.5,3.9c0,1.7,0.5,3.1,1.6,4.1c1.1,1,2.7,1.6,4.9,1.6c1,0,1.9-0.1,2.8-0.4c0.9-0.3,1.7-0.8,2.3-1.4h-6.2V10.9z"/>
<path d="M49.9,24c-0.4-1.2-0.9-2.7-1.6-4.5H38.2L36.6,24h-8l8.9-23h11.7l8.9,23H49.9z M46.5,14.6c-0.8-2.2-1.6-4.4-2.5-6.7l-0.8-2.1
	c-0.7,1.9-1.8,4.8-3.3,8.7H46.5z"/>
<path d="M85.3,8.7c0,1.8-0.5,3.4-1.4,4.7c-0.9,1.3-2.4,2.2-4.6,2.8c0.3,0.3,0.4,0.6,0.5,0.8L85,24h-8.6c-0.9-1.7-2.4-4.2-4.4-7.4
	h-4.7V24h-7.5c0.2-4.1,0.3-7.9,0.3-11.5C60.1,9,60,5.1,59.8,1h7.5v0h6.5c4.3,0,7.2,0.7,8.9,2.1C84.5,4.5,85.3,6.4,85.3,8.7z
	 M67.3,7.1v3.6h4.3c1.8,0,3.1-0.1,4.1-0.2c0.9-0.1,1.6-0.3,1.9-0.6c0.4-0.3,0.5-0.6,0.5-1.1c0-0.5-0.2-0.8-0.5-1.1
	c-0.3-0.3-1-0.4-1.9-0.5c-0.9-0.1-2.3-0.2-4.1-0.2H67.3z"/>
<path d="M98,0.7c4,0,7.1,0.5,9.4,1.5c2.3,1,3.9,2.3,4.8,4c0.9,1.7,1.4,3.8,1.4,6.2c0,2.3-0.5,4.4-1.6,6.2c-1.1,1.8-2.6,3.1-4.8,4.1
	c-2.1,1-4.7,1.4-7.8,1.4c-1.9,0-3.8,0-5.7,0c-1.9,0-3.9,0-5.9,0c0.2-4.2,0.3-8,0.3-11.6c0-3.6-0.1-7.4-0.3-11.4
	C90.3,0.8,93.7,0.7,98,0.7z M100.4,17.7c2,0,3.3-0.5,3.9-1.4c0.7-1,1-2.3,1-3.9c0-1.6-0.3-2.9-1-3.9c-0.7-1-2-1.5-3.9-1.5
	c-2,0-3.6,0.1-4.6,0.2v10.6H100.4z"/>
</svg>
