<svg width="717" height="158" viewBox="0 0 717 158" fill="none" xmlns="http://www.w3.org/2000/svg">
<path d="M86.0962 67.9841H84.0962V69.9841V102.085V104.085H86.0962H119.862C117.008 106.304 113.736 107.972 110.03 109.086L110.017 109.09C104.633 110.747 99.053 111.577 93.2697 111.577C79.7328 111.577 70.032 108.404 63.7729 102.429C57.5768 96.3869 54.4208 88.4135 54.4208 78.3065C54.4208 68.9997 57.3751 61.3137 63.2396 55.1097L63.2464 55.1025L63.2531 55.0953C68.9895 48.9054 77.8619 45.6301 90.2807 45.6301C97.7517 45.6301 104.815 46.91 111.485 49.4612L111.501 49.4672L111.517 49.4729C118.153 51.8842 123.949 55.5582 128.922 60.504L129.99 61.5658L131.306 60.8332L136.265 58.0716C153.656 48.9624 165.328 42.8954 171.291 39.8648L173.465 38.7594L171.955 36.8436C162.589 24.9651 151.162 16.166 137.69 10.4814C124.378 4.80844 109.025 2 91.6756 2C61.3979 2 38.6721 8.92189 23.9312 23.1696C9.25186 37.3577 2 56.6106 2 80.6843C2 95.746 4.97661 109.023 10.998 120.454L11.0024 120.462L11.0068 120.47C17.1514 131.876 25.5783 140.677 36.2816 146.818L36.2911 146.823C47.119 152.957 59.4213 156 73.1442 156C88.1636 156 101.023 152.904 111.627 146.605C120.13 141.553 126.546 134.364 130.887 125.116L134.125 152.255L134.336 154.019H136.111H171.181H173.181V152.019V69.9841V67.9841H171.181H86.0962ZM310.95 152.654L311.407 154.019H312.846H364.455H367.384L366.318 151.291L310.126 7.43349L309.629 6.16116H308.263H234.935H233.565L233.07 7.43797L177.276 151.295L176.22 154.019H179.141H229.156H230.573L231.043 152.682L240.536 125.683H301.296C305.315 136.454 308.533 145.443 310.95 152.654ZM253.354 90.7715C260.752 70.8805 266.623 55.2694 270.967 43.935L273.908 51.856L273.912 51.8657L273.916 51.8753C278.883 64.8408 283.733 77.8062 288.468 90.7715H253.354ZM424.114 152.019V108.048H450.308C462.618 127.402 471.624 142.369 477.343 152.968L477.91 154.019H479.103H533.302H537.22L534.922 150.846L502.709 106.354C502.273 105.587 501.685 104.678 500.954 103.636C513.44 99.9589 522.61 94.2745 528.155 86.4036C534.151 78.0814 537.096 67.9463 537.096 56.1136C537.096 40.897 531.547 28.6804 520.412 19.6834C509.218 10.6393 489.879 6.35931 462.963 6.35931H424.114V6.16116H422.114H375.088H373.003L373.09 8.24403C374.151 33.8479 374.682 57.7962 374.682 80.0898C374.682 102.383 374.151 126.332 373.09 151.936L373.003 154.019H375.088H422.114H424.114V152.019ZM673.964 144.927L673.972 144.924L673.979 144.92C687.576 138.701 697.87 129.93 704.747 118.577C711.605 107.257 715 94.074 715 79.0991C715 63.4028 712.033 50.0408 705.989 39.1069C700 27.8989 689.485 19.316 674.713 13.2498C659.886 7.02923 639.861 3.9815 614.763 3.9815C588.039 3.9815 566.721 4.64226 550.833 5.96996L548.919 6.12991L549.001 8.04897C550.063 32.7256 550.594 56.4089 550.594 79.0991C550.594 101.525 550.063 125.738 549.001 151.739L548.917 153.798L550.978 153.82C563.472 153.952 575.834 154.019 588.062 154.019H588.134H588.206H588.277H588.349H588.42H588.492H588.563H588.635H588.707H588.778H588.85H588.921H588.993H589.064H589.136H589.207H589.279H589.351H589.422H589.494H589.565H589.637H589.708H589.78H589.851H589.923H589.994H590.066H590.137H590.209H590.28H590.351H590.423H590.494H590.566H590.637H590.709H590.78H590.852H590.923H590.994H591.066H591.137H591.209H591.28H591.352H591.423H591.494H591.566H591.637H591.708H591.78H591.851H591.923H591.994H592.065H592.137H592.208H592.279H592.351H592.422H592.493H592.565H592.636H592.707H592.779H592.85H592.921H592.992H593.064H593.135H593.206H593.278H593.349H593.42H593.491H593.563H593.634H593.705H593.776H593.848H593.919H593.99H594.061H594.133H594.204H594.275H594.346H594.417H594.489H594.56H594.631H594.702H594.773H594.845H594.916H594.987H595.058H595.129H595.201H595.272H595.343H595.414H595.485H595.556H595.627H595.698H595.77H595.841H595.912H595.983H596.054H596.125H596.196H596.267H596.338H596.409H596.481H596.552H596.623H596.694H596.765H596.836H596.907H596.978H597.049H597.12H597.191H597.262H597.333H597.404H597.475H597.546H597.617H597.688H597.759H597.83H597.901H597.972H598.043H598.114H598.185H598.256H598.327H598.398H598.469H598.54H598.611H598.682H598.753H598.823H598.894H598.965H599.036H599.107H599.178H599.249H599.32H599.391H599.461H599.532H599.603H599.674H599.745H599.816H599.887H599.958H600.028H600.099H600.17H600.241H600.312H600.383H600.453H600.524H600.595H600.666H600.737H600.807H600.878H600.949H601.02H601.091H601.161H601.232H601.303H601.374H601.444H601.515H601.586H601.657H601.727H601.798H601.869H601.94H602.01H602.081H602.152H602.222H602.293H602.364H602.434H602.505H602.576H602.646H602.717H602.788H602.859H602.929H603H603.07H603.141H603.212H603.282H603.353H603.424H603.494H603.565H603.635H603.706H603.777H603.847H603.918H603.989H604.059H604.13H604.2H604.271H604.341H604.412H604.482H604.553H604.624H604.694H604.765H604.835H604.906H604.976H605.047H605.117H605.188H605.258H605.329H605.399H605.47H605.54H605.611H605.681H605.752H605.822H605.893H605.963H606.034H606.104H606.175H606.245H606.315H606.386H606.456H606.527H606.597H606.668H606.738H606.808H606.879H606.949H607.02H607.09H607.16H607.231H607.301H607.372H607.442H607.512H607.583H607.653H607.723H607.794H607.864H607.934H608.005H608.075H608.145H608.216H608.286H608.356H608.427H608.497H608.567H608.637H608.708H608.778H608.848H608.919H608.989H609.059H609.129H609.2H609.27H609.34H609.41H609.481H609.551H609.621H609.691H609.761H609.832H609.902H609.972H610.042H610.112H610.183H610.253H610.323H610.393H610.463H610.534H610.604H610.674H610.744H610.814H610.884H610.954H611.025H611.095H611.165H611.235H611.305H611.375H611.445H611.515H611.585H611.656H611.726H611.796H611.866H611.936H612.006H612.076H612.146H612.216H612.286H612.356H612.426H612.496H612.566H612.636H612.706H612.776H612.846H612.916H612.986H613.056H613.126H613.196H613.266H613.336H613.406H613.476H613.546H613.616H613.686H613.756H613.826H613.896H613.966H614.036H614.106H614.176H614.246H614.316H614.386H614.456H614.525H614.595H614.665H614.735H614.805H614.875H614.945H615.015H615.085H615.154H615.224H615.294H615.364H615.434H615.504H615.573H615.643H615.713H615.783H615.853H615.923H615.992H616.062H616.132H616.202H616.272H616.341H616.411H616.481H616.551H616.621H616.69H616.76H616.83H616.9H616.969H617.039H617.109H617.179H617.248H617.318H617.388H617.457H617.527H617.597H617.667H617.736H617.806H617.876H617.945H618.015H618.085H618.154H618.224H618.294H618.363H618.433H618.503H618.572H618.642H618.711H618.781H618.851H618.92H618.99H619.06H619.129H619.199H619.268H619.338H619.408H619.477H619.547H619.616H619.686H619.755H619.825H619.895H619.964H620.034H620.103H620.173H620.242H620.312H620.381H620.451H620.52H620.59H620.659H620.729H620.798H620.868H620.937H621.007H621.076H621.146H621.215H621.285H621.354H621.424H621.493H621.562H621.632H621.701H621.771H621.84H621.91H621.979H622.049H622.118H622.187H622.257H622.326H622.396H622.465H622.534H622.604H622.673H622.742H622.812H622.881H622.951H623.02H623.089H623.159H623.228H623.297H623.367H623.436H623.505H623.574H623.644H623.713H623.782H623.852H623.921H623.99H624.06H624.129C643.716 154.019 660.353 151.018 673.964 144.927ZM652.368 55.8564L652.376 55.8683L652.384 55.8801C656.464 61.6581 658.594 69.3414 658.594 79.0991C658.594 89.3004 656.577 97.0391 652.773 102.531C649.231 107.644 641.868 110.587 629.708 110.587H602.815V48.388C609.04 47.7426 617.99 47.4135 629.708 47.4135C641.404 47.4135 648.67 50.4549 652.368 55.8564ZM424.114 66.9934V48.4042H449.014C460.42 48.4042 468.964 48.7348 474.694 49.3823C480.519 50.0406 484.02 51.1298 485.678 52.3668C487.244 53.5344 488.062 55.1557 488.062 57.5007C488.062 59.9643 487.191 61.6304 485.526 62.799C483.693 64.0856 480.069 65.2303 474.27 66.0182C468.676 66.6635 460.274 66.9934 449.014 66.9934H424.114Z" stroke="black" stroke-width="4"/>
</svg>
